<svg id="Layer_1" data-name="Layer 1" xmlns="http://www.w3.org/2000/svg" viewBox="0 0 498 458"><defs><style>.cls-1{fill:#fff;stroke:#000;opacity:0.11;}.cls-1,.cls-5,.cls-6,.cls-7,.cls-8,.cls-9{stroke-miterlimit:10;}.cls-2{fill:#e69b57;}.cls-3{fill:#1f1714;}.cls-4{fill:#534439;}.cls-5,.cls-6,.cls-7,.cls-8,.cls-9{fill:none;stroke:#fff;stroke-linecap:round;}.cls-5{stroke-width:4px;}.cls-6{stroke-width:3px;}.cls-7{stroke-width:2px;}.cls-8{stroke-width:1.5px;}</style></defs><title>Untitled-2</title><rect class="cls-1" x="2" y="0.5" width="492" height="457"/><path id="MainBody" class="cls-2" d="M-1.5,94s61,22,81,15,82-46,82-46,53-20,110,29,63,92,63,92l53,135s21,98-27,138H-1.5Z" transform="translate(3.5 0.5)"/><ellipse id="BlackHole" class="cls-3" cx="173.36" cy="283.64" rx="66.38" ry="90.86" transform="translate(-98.05 97.25) rotate(-24.36)"/><polygon class="cls-4" points="225.5 209 270.5 326 494.5 263 494.5 153 225.5 209"/><line class="cls-5" x1="2" y1="258" x2="496" y2="160"/><line class="cls-6" x1="3.5" y1="280.5" x2="495.95" y2="177.33"/><line class="cls-7" x1="4" y1="310" x2="496" y2="195"/><line class="cls-7" x1="2" y1="337" x2="495" y2="217"/><line class="cls-8" x1="2" y1="362" x2="496" y2="230"/><line class="cls-9" x1="1.5" y1="388.5" x2="495.5" y2="249.5"/></svg>