<svg id="Layer_1" data-name="Layer 1" xmlns="http://www.w3.org/2000/svg" viewBox="0 0 195 195"><defs><style>.cls-1{fill:#fff;}.cls-1,.cls-2,.cls-3,.cls-4,.cls-5{stroke:#000;stroke-miterlimit:10;}.cls-2{fill:#666;}.cls-3{fill:none;}.cls-4{fill:#e6e6e6;}</style></defs><title>Untitled-1</title><path class="cls-1" d="M572.5,127.5v194h36.59l11.41-75v-3l10-14,3-18s10-64,57-57c65,7,37,92,37,92l6,17-6,2-8.62,56H766.5v-194Z" transform="translate(-572 -127)"/><path class="cls-1" d="M620.5,245.5s58-22,113,18l-7-18s-53-36-97-13Z" transform="translate(-572 -127)"/><path class="cls-2" d="M726.5,245.5s-44-26-97-13c0,0,5-85,60-79s43,67,43,67S732.5,239.5,726.5,245.5Z" transform="translate(-572 -127)"/><line class="cls-3" x1="37.5" y1="194.5" x2="146.5" y2="194.5"/><path class="cls-4" d="M620.5,245.5l-11,76h109l9-58h6S693.5,225.5,620.5,245.5Z" transform="translate(-572 -127)"/><ellipse class="cls-5" cx="69" cy="148.5" rx="14.5" ry="13"/></svg>